<svg id="SvgjsSvg1001" width="288" height="288" xmlns="http://www.w3.org/2000/svg" version="1.1" xmlns:xlink="http://www.w3.org/1999/xlink" xmlns:svgjs="http://svgjs.com/svgjs"><defs id="SvgjsDefs1002"></defs><g id="SvgjsG1008" transform="matrix(0.9167,0,0,0.9167,11.995194929798316,11.995174896621705)"><svg xmlns="http://www.w3.org/2000/svg" width="288" height="288" enable-background="new 0 0 509.624 509.624" viewBox="0 0 509.624 509.624"><path d="m237.262 435.54h-213.844c-4.642 0-8.418-3.776-8.418-8.418v-238.885c0-4.142-3.358-7.5-7.5-7.5-4.143 0-7.5 3.358-7.5 7.5v238.885c0 12.913 10.505 23.418 23.418 23.418h213.844c4.143 0 7.5-3.358 7.5-7.5s-3.358-7.5-7.5-7.5z" fill="#ffffff" class="color000 svgShape"></path><path d="m500.396 421.252c-.182-.181-.372-.353-.57-.515l-85.209-69.317c13.299-19.838 20.443-43.16 20.443-67.58 0-30.358-11.043-59.018-31.224-81.397.125-.543.197-1.105.197-1.686v-140.826c0-14.016-11.403-25.419-25.419-25.419h-353.195c-14.016 0-25.419 11.403-25.419 25.419v98.305c0 4.142 3.357 7.5 7.5 7.5 4.142 0 7.5-3.358 7.5-7.5v-98.305c0-5.745 4.674-10.419 10.419-10.419h113.582v72.767c0 2.443 1.189 4.732 3.189 6.136 1.997 1.404 4.554 1.748 6.853.92l52.974-19.084 52.974 19.084c.826.298 1.685.444 2.541.444 1.523 0 3.033-.464 4.313-1.363 1.999-1.404 3.189-3.694 3.189-6.136v-72.768h113.582c5.745 0 10.419 4.674 10.419 10.419v128.583c-21.447-17.096-47.848-26.383-75.682-26.383-32.51 0-63.073 12.66-86.062 35.648-8.784 8.784-15.938 18.59-21.47 29.036h-113.703c-8.842 0-16.035 7.193-16.035 16.035v80.383c0 8.842 7.193 16.036 16.035 16.036h112.878c5.639 11.043 13.065 21.402 22.294 30.631 22.988 22.988 53.552 35.647 86.062 35.647 24.834 0 48.527-7.395 68.58-21.131l7.101 7.837v34.868c0 4.642-3.776 8.418-8.418 8.418h-113.353c-4.143 0-7.5 3.358-7.5 7.5s3.357 7.5 7.5 7.5h113.354c12.913 0 23.418-10.505 23.418-23.418v-18.314l51.475 56.808c.082.091.167.18.254.267 6.152 6.152 14.234 9.229 22.315 9.229 8.082 0 16.164-3.076 22.317-9.229 12.305-12.304 12.305-32.325.001-44.63zm-250.364-309.647-45.474-16.382c-1.643-.592-3.441-.592-5.084 0l-45.474 16.382v-62.093h96.031v62.093zm-94.815 130.21v82.454h-28.599v-82.454zm-64.134 81.418v-80.383c0-.571.465-1.035 1.035-1.035h19.5v82.454h-19.5c-.57 0-1.035-.464-1.035-1.036zm79.134 1.036v-82.454h28.927c-9.719 26.539-9.917 55.807-.579 82.454zm67.68 35.025c-41.605-41.605-41.605-109.303 0-150.908 20.154-20.154 46.951-31.254 75.454-31.254s55.299 11.1 75.453 31.254c20.155 20.155 31.255 46.951 31.255 75.454s-11.1 55.299-31.255 75.454c-20.154 20.154-46.95 31.254-75.453 31.254s-55.299-11.1-75.454-31.254zm251.89 95.983c-6.415 6.416-16.832 6.457-23.298.118l-72.695-80.225c1.917-1.693 3.794-3.444 5.618-5.269 2.121-2.121 4.153-4.307 6.096-6.553l84.525 68.761c2.973 3.097 4.605 7.153 4.605 11.459.001 4.422-1.722 8.581-4.851 11.709z" fill="#ffffff" class="color000 svgShape"></path><path d="m374.268 222.923c-16.272-16.271-37.906-25.232-60.917-25.232-23.012 0-44.646 8.961-60.917 25.232s-25.232 37.905-25.232 60.917c0 23.011 8.961 44.645 25.232 60.917 16.271 16.271 37.905 25.232 60.917 25.232 23.011 0 44.645-8.961 60.917-25.232 33.589-33.59 33.589-88.244 0-121.834zm-62.353 18.892c.57 0 1.035.464 1.035 1.035v80.383c0 .571-.465 1.036-1.035 1.036h-29.5v-82.454zm-55.985 0h11.485v82.454h-12.61c-8.182-11.796-12.603-25.769-12.603-40.429 0-15.324 4.819-29.905 13.728-42.025zm107.731 92.335c-13.439 13.438-31.306 20.839-50.31 20.839-16.428 0-32-5.54-44.602-15.72h43.165c8.842 0 16.035-7.193 16.035-16.036v-80.383c0-8.842-7.193-16.035-16.035-16.035h-41.124c12.224-9.163 27.009-14.124 42.56-14.124 19.004 0 36.871 7.401 50.31 20.839 27.742 27.741 27.742 72.879.001 100.62z" fill="#ffffff" class="color000 svgShape"></path></svg></g></svg>